<svg width="647" height="663" viewBox="0 0 647 663" fill="none" xmlns="http://www.w3.org/2000/svg">
<path d="M147.874 474.735L134.253 472.156C133.328 471.981 132.431 471.678 131.588 471.257C126.547 468.736 124.504 462.606 127.025 457.565L128.999 453.616C131.49 448.634 136.582 445.487 142.151 445.487H159.585C162.856 445.487 165.951 446.571 168.453 448.462L185.211 398.188C191.215 380.175 208.073 368.025 227.06 368.025H419.94C438.927 368.025 455.785 380.175 461.789 398.188L478.169 447.328C480.309 446.136 482.758 445.471 485.322 445.471H504.632C510.099 445.471 515.115 448.504 517.654 453.346L519.865 457.56C522.457 462.502 520.552 468.609 515.61 471.202C514.725 471.666 513.775 471.996 512.792 472.182L499.155 474.758L506.918 480.867C521.091 492.019 529.364 509.056 529.364 527.09V618.002C529.364 642.365 509.613 662.116 485.25 662.116H441.136C421.929 662.116 405.589 649.84 399.533 632.707H247.467C241.411 649.84 225.071 662.116 205.864 662.116H161.75C137.387 662.116 117.636 642.365 117.636 618.002V527.09C117.636 509.056 125.909 492.019 140.082 480.867L147.874 474.735ZM499.147 520.243C497.62 513.868 493.987 508.114 488.732 503.978L467.118 486.971L432.855 495.536C420.025 498.744 406.85 500.366 393.625 500.366H253.375C240.15 500.366 226.975 498.744 214.145 495.536L179.882 486.971L158.268 503.978C153.013 508.113 149.381 513.866 147.854 520.241L220.575 544.479C220.418 555.637 190.642 567.081 147.045 561.598V618.002C147.045 626.123 153.629 632.707 161.75 632.707H205.864C213.985 632.707 220.568 626.123 220.568 618.002C220.568 609.881 227.152 603.297 235.273 603.297H411.727C419.848 603.297 426.432 609.881 426.432 618.002C426.432 626.123 433.015 632.707 441.136 632.707H485.25C493.371 632.707 499.955 626.123 499.955 618.002V561.599C456.362 567.079 426.589 555.636 426.432 544.479L499.147 520.243ZM58.8182 632.707V191.57H588.182V632.707H617.591V100.253L323.5 30.2312L29.4091 100.253V632.707H58.8182ZM72.8603 662.101C72.6407 662.111 72.4199 662.116 72.1979 662.116H0V77.0239L323.5 0L647 77.0239V662.116H577.796C577.062 662.116 576.341 662.062 575.636 661.958C574.932 662.062 574.211 662.116 573.477 662.116C565.356 662.116 558.773 655.532 558.773 647.411V220.979H88.2273V647.411C88.2273 655.532 81.6438 662.116 73.5227 662.116C73.3007 662.116 73.0799 662.111 72.8603 662.101ZM529.364 250.388C537.485 250.388 544.068 256.972 544.068 265.093C544.068 273.214 537.485 279.797 529.364 279.797H117.636C109.515 279.797 102.932 273.214 102.932 265.093C102.932 256.972 109.515 250.388 117.636 250.388H529.364ZM529.364 309.207C537.485 309.207 544.068 315.79 544.068 323.911C544.068 332.032 537.485 338.616 529.364 338.616H117.636C109.515 338.616 102.932 332.032 102.932 323.911C102.932 315.79 109.515 309.207 117.636 309.207H529.364ZM433.889 407.488C431.888 401.484 426.269 397.434 419.94 397.434H227.06C220.731 397.434 215.112 401.484 213.111 407.488L195.426 460.542L221.277 467.005C231.775 469.629 242.554 470.957 253.375 470.957H393.625C404.446 470.957 415.225 469.629 425.723 467.005L451.574 460.542L433.889 407.488Z" fill="#007DC3"/>
</svg>
